<?xml version="1.0" standalone="no"?><!DOCTYPE svg PUBLIC "-//W3C//DTD SVG 1.1//EN" "http://www.w3.org/Graphics/SVG/1.1/DTD/svg11.dtd"><svg t="1758811896191" class="icon" viewBox="0 0 1024 1024" version="1.1" xmlns="http://www.w3.org/2000/svg" p-id="1785" id="mx_n_1758811896192" width="48" height="48" xmlns:xlink="http://www.w3.org/1999/xlink"><path d="M281.25 205c-21.25 0-38.75-17.5-38.75-38.75L242.5 50c0-21.25 17.5-38.75 38.75-38.75l0 0c21.25 0 38.75 17.5 38.75 38.75l0 115C320 187.5 302.5 205 281.25 205L281.25 205 281.25 205zM896.25 88.75l-76.25 0 0 77.5c0 42.5-35 77.5-77.5 77.5-42.5 0-77.5-35-77.5-77.5L665 88.75 358.75 88.75l0 77.5c0 42.5-35 77.5-77.5 77.5-42.5 0-77.5-35-77.5-77.5L203.75 88.75l-77.5 0C63.75 88.75 12.5 141.25 12.5 205l0 692.5c0 63.75 51.25 115 115 115l768.75 0c63.75 0 115-51.25 115-115l0-692.5C1011.25 141.25 960 88.75 896.25 88.75L896.25 88.75zM877.5 935 146.25 935c-35 0-63.75-28.75-63.75-63.75L82.5 277.5l858.75 0 0 593.75C941.25 906.25 912.5 935 877.5 935zM742.5 205c-21.25 0-38.75-17.5-38.75-38.75l0-115c0-21.25 17.5-38.75 38.75-38.75l0 0c21.25 0 38.75 17.5 38.75 38.75l0 115C781.25 187.5 763.75 205 742.5 205L742.5 205 742.5 205zM838.75 356.25 185 356.25c-2.5 0-5 2.5-5 6.25L180 837.5c0 3.75 2.5 6.25 5 6.25l653.75 0c2.5 0 5-2.5 5-6.25L843.75 362.5C843.75 358.75 841.25 356.25 838.75 356.25L838.75 356.25zM507.5 606.25l0 226.25-163.75 0L343.75 606.25 507.5 606.25 507.5 606.25zM343.75 593.75 343.75 367.5l163.75 0 0 226.25L343.75 593.75 343.75 593.75zM516.25 606.25l163.75 0 0 226.25-163.75 0L516.25 606.25 516.25 606.25zM516.25 593.75 516.25 367.5l163.75 0 0 226.25L516.25 593.75 516.25 593.75zM190 367.5l143.75 0 0 226.25L190 593.75 190 367.5 190 367.5zM190 606.25l143.75 0 0 226.25-143.75 0L190 606.25 190 606.25zM833.75 831.25 690 831.25 690 606.25l143.75 0L833.75 831.25 833.75 831.25zM833.75 593.75 690 593.75 690 367.5l143.75 0L833.75 593.75 833.75 593.75z" p-id="1786"></path></svg>