<?xml version="1.0" encoding="utf-8"?>
<!-- Generator: Adobe Illustrator 15.0.0, SVG Export Plug-In . SVG Version: 6.00 Build 0)  -->
<svg version="1.2" baseProfile="tiny" id="Ebene_1" xmlns="http://www.w3.org/2000/svg" xmlns:xlink="http://www.w3.org/1999/xlink"
	 x="0px" y="0px" width="341.5px" height="341.5px" viewBox="0 0 341.5 341.5" xml:space="preserve">
<path d="M170.607,28.458c-78.545,0-142.149,63.747-142.149,142.292s63.604,142.292,142.149,142.292
	c78.688,0,142.435-63.747,142.435-142.292S249.295,28.458,170.607,28.458z M170.75,284.583
	c-62.892,0-113.833-50.941-113.833-113.833S107.858,56.917,170.75,56.917s113.833,50.941,113.833,113.833
	S233.642,284.583,170.75,284.583z"/>
<path fill="none" d="M0,0h341.5v341.5H0V0z"/>
<path d="M177.864,99.604h-21.344v85.375l74.703,44.82l10.672-17.502l-64.031-37.99V99.604z"/>
<g>
	<path fill="none" stroke="#2E52A4" stroke-width="12" stroke-miterlimit="10" d="M214.466,235.422
		c-13.237,14.016-24.452,18.831-37.692,20.104"/>
	<g>
		<polygon fill="#2E52A4" points="181.871,237.163 150.936,255.37 182.171,273.061 		"/>
	</g>
</g>
<g>
	<path fill="none" stroke="#2E52A4" stroke-width="12" stroke-miterlimit="10" d="M241.896,192.921
		c10.013-16.479,11.686-28.568,9.405-41.671"/>
	<g>
		<polygon fill="#2E52A4" points="269.444,151.86 244.114,126.428 234.751,161.083 		"/>
	</g>
</g>
</svg>
